<?xml version="1.0" encoding="utf-8"?>
<!-- Generator: Adobe Illustrator 22.0.1, SVG Export Plug-In . SVG Version: 6.00 Build 0)  -->
<svg version="1.1" id="Layer_2" xmlns="http://www.w3.org/2000/svg" xmlns:xlink="http://www.w3.org/1999/xlink" x="0px" y="0px"
	 viewBox="0 0 283.5 86.2" style="enable-background:new 0 0 283.5 86.2;" xml:space="preserve">
<style type="text/css">
	.st0{fill:#FFFFFF;}
	.st1{fill:url(#SVGID_1_);}
	.st2{fill:url(#SVGID_2_);}
	.st3{fill:#48C2C5;}
	.st4{fill:url(#SVGID_3_);}
	.st5{fill:#002A5C;}
	.st6{fill:url(#SVGID_4_);}
	.st7{fill:url(#SVGID_5_);}
	.st8{fill:url(#SVGID_6_);}
	.st9{fill:url(#SVGID_7_);}
	.st10{fill:url(#SVGID_8_);}
	.st11{fill:url(#SVGID_9_);}
	.st12{fill:url(#SVGID_10_);}
	.st13{fill:url(#SVGID_11_);}
	.st14{fill:url(#SVGID_12_);}
	.st15{fill:url(#SVGID_13_);}
	.st16{fill:url(#SVGID_14_);}
	.st17{fill:url(#SVGID_15_);}
	.st18{fill:url(#SVGID_16_);}
	.st19{fill:url(#SVGID_17_);}
	.st20{fill:url(#SVGID_18_);}
	.st21{fill:url(#SVGID_19_);}
	.st22{fill:url(#SVGID_20_);}
	.st23{fill:url(#SVGID_21_);}
	.st24{fill:url(#SVGID_22_);}
	.st25{fill:url(#SVGID_23_);}
	.st26{fill:url(#SVGID_24_);}
	.st27{fill:url(#SVGID_25_);}
	.st28{fill:url(#SVGID_26_);}
</style>
<g>
	<g>
		<g>
			<path class="st5" d="M156.9,85.1c-3.8,0-7.2-0.7-10-2c-2.9-1.4-5.1-3.4-6.7-5.9c-1.5-2.5-2.3-5.5-2.3-8.8s0.8-6.3,2.3-8.8
				c1.5-2.5,3.8-4.5,6.7-5.9c2.8-1.3,6.2-2,10-2c3.3,0,6.2,0.5,8.7,1.6c2.6,1.1,4.6,2.6,6.2,4.4c1.6,1.9,2.5,4,2.9,6.4l0.1,1.3h-6.3
				l-0.1-0.7c-0.2-1.2-0.8-2.3-1.6-3.4c-0.9-1.1-2.1-1.9-3.7-2.6c-1.7-0.7-3.7-1.1-6-1.1c-2.8,0-5.2,0.5-7.1,1.4
				c-1.8,0.9-3.2,2.1-4.1,3.6c-0.9,1.6-1.4,3.5-1.4,5.7c0,2.2,0.5,4.2,1.4,5.8c0.9,1.6,2.3,2.8,4.2,3.6c1.9,0.9,4.3,1.4,7.1,1.4
				c2.4,0,4.4-0.4,6-1.1c1.6-0.7,2.9-1.6,3.7-2.7c0.9-1.1,1.4-2.2,1.7-3.4l0.1-0.9h6.3l-0.2,1.5c-0.4,2.3-1.3,4.5-2.9,6.4
				c-1.5,1.9-3.6,3.4-6.1,4.5C163,84.6,160.1,85.1,156.9,85.1z"/>
			<polygon class="st5" points="178.5,84.3 178.5,52.5 184.7,52.5 184.7,78.4 207.7,78.4 207.7,84.3 			"/>
			<path class="st5" d="M228,85.1c-6.3,0-11-1.5-13.8-4.4c-2.9-2.9-4.3-6.9-4.3-12V52.5h6.2v16.3c0,3.2,0.8,5.7,2.5,7.6
				c1.6,1.8,4.8,2.7,9.5,2.7c4.8,0,8-0.9,9.5-2.7c1.6-1.9,2.5-4.5,2.5-7.6V52.5h6.2v16.3c0,5-1.5,9.1-4.3,12
				C239,83.7,234.4,85.1,228,85.1z"/>
			<polygon class="st5" points="250.8,84.3 250.8,52.5 282,52.5 282,58.5 256.9,58.5 256.9,65.4 281.2,65.4 281.2,71.4 256.9,71.4 
				256.9,78.4 282,78.4 282,84.3 			"/>
		</g>
		<linearGradient id="SVGID_1_" gradientUnits="userSpaceOnUse" x1="1.4645" y1="54.7169" x2="282.0001" y2="54.7169">
			<stop  offset="0" style="stop-color:#48C2C5"/>
			<stop  offset="1" style="stop-color:#002A5C"/>
		</linearGradient>
		<path class="st1" d="M282,29.5v-5.2H1.6v10.3h102.6c-1.2,1-2.4,2-3.5,3.1l-1.4,1.4c-6.7,6.7-15.7,10.5-25.2,10.5H1.6v10.3h72.6
			c12.3,0,23.9-4.8,32.5-13.5L108,45c6.5-6.5,15.8-10.2,25.5-10.2l2.8,0c-2.9,2-5.6,4.2-8.1,6.8l-19.1,19.1
			c-9.1,9.1-21.2,14.1-34.1,14.1l-73.7,0l0.2,10.3h73.6c15.6,0,30.3-6.1,41.3-17.1L135.6,49c9.1-9.1,21.2-14.1,34-14.1L282,34.6
			L282,29.5z"/>
	</g>
	<g>
		<path class="st5" d="M6.9,12.8c-1.1,0-2.1-0.2-2.9-0.7c-0.8-0.5-1.4-1.2-1.9-2C1.7,9.2,1.5,8.1,1.5,7c0-1.2,0.2-2.2,0.7-3
			c0.4-0.9,1.1-1.6,1.9-2c0.8-0.5,1.8-0.7,2.9-0.7c1.3,0,2.4,0.3,3.2,1c0.8,0.6,1.4,1.5,1.6,2.7H9.8c-0.1-0.7-0.5-1.2-1-1.6
			c-0.5-0.4-1.2-0.6-2-0.6c-1.1,0-2,0.4-2.7,1.1s-1,1.8-1,3.2c0,1.3,0.3,2.4,1,3.1c0.7,0.8,1.5,1.1,2.7,1.1c0.8,0,1.5-0.2,2-0.5
			c0.5-0.4,0.8-0.9,1-1.5h1.9c-0.2,1.1-0.8,2-1.6,2.6C9.3,12.5,8.2,12.8,6.9,12.8z"/>
		<path class="st5" d="M14.5,3.1c-0.3,0-0.6-0.1-0.8-0.3c-0.2-0.2-0.3-0.4-0.3-0.7s0.1-0.5,0.3-0.7C13.9,1.1,14.2,1,14.5,1
			c0.3,0,0.6,0.1,0.8,0.3c0.2,0.2,0.3,0.4,0.3,0.7s-0.1,0.5-0.3,0.7C15.1,3,14.8,3.1,14.5,3.1z M13.6,12.6v-8h1.7v8H13.6z"/>
		<path class="st5" d="M20.9,12.6c-0.8,0-1.4-0.2-1.9-0.6c-0.5-0.4-0.7-1.1-0.7-2V6.1H17V4.6h1.4l0.2-2h1.5v2h2.3v1.4h-2.3V10
			c0,0.4,0.1,0.7,0.3,0.9c0.2,0.2,0.5,0.2,1,0.2h0.9v1.4H20.9z"/>
		<path class="st5" d="M25,16.2l1.9-4.2h-0.5l-3.2-7.3h1.8l2.4,5.9l2.6-5.9H32l-5.1,11.5H25z"/>
		<path class="st5" d="M37.5,12.6V1.4h1.7v9.9h5.1v1.4H37.5z"/>
		<path class="st5" d="M49.5,12.8c-0.8,0-1.4-0.2-2-0.5c-0.6-0.3-1.1-0.8-1.4-1.5c-0.4-0.6-0.5-1.4-0.5-2.2c0-0.8,0.2-1.6,0.5-2.2
			c0.4-0.6,0.8-1.1,1.5-1.5c0.6-0.3,1.3-0.5,2-0.5c0.8,0,1.4,0.2,2.1,0.5c0.6,0.3,1.1,0.8,1.4,1.5c0.4,0.6,0.5,1.4,0.5,2.2
			c0,0.8-0.2,1.6-0.5,2.2c-0.4,0.6-0.8,1.1-1.5,1.5C50.9,12.6,50.2,12.8,49.5,12.8z M49.5,11.3c0.4,0,0.8-0.1,1.1-0.3
			c0.3-0.2,0.6-0.5,0.8-0.9c0.2-0.4,0.3-0.9,0.3-1.5c0-0.6-0.1-1.1-0.3-1.5c-0.2-0.4-0.5-0.7-0.8-0.9c-0.3-0.2-0.7-0.3-1.1-0.3
			c-0.4,0-0.8,0.1-1.1,0.3c-0.3,0.2-0.6,0.5-0.8,0.9S47.2,8,47.2,8.6c0,0.6,0.1,1.1,0.3,1.5c0.2,0.4,0.5,0.7,0.8,0.9
			C48.7,11.2,49,11.3,49.5,11.3z"/>
		<path class="st5" d="M58.2,10.2c-0.4,0-0.8,0-1.2-0.1l-0.7,0.7c0.1,0.1,0.3,0.1,0.4,0.2c0.2,0.1,0.4,0.1,0.7,0.1
			c0.3,0,0.7,0.1,1.3,0.1c1.1,0.1,1.8,0.4,2.3,0.8c0.5,0.4,0.7,1,0.7,1.6c0,0.5-0.1,0.9-0.4,1.3c-0.3,0.4-0.6,0.8-1.2,1
			s-1.2,0.4-2,0.4c-1.1,0-2-0.2-2.7-0.6c-0.7-0.4-1-1.1-1-1.9c0-0.3,0.1-0.7,0.3-1c0.2-0.3,0.5-0.6,0.8-0.9
			c-0.2-0.1-0.4-0.2-0.6-0.3c-0.2-0.1-0.3-0.2-0.4-0.3v-0.4l1.4-1.4C55.3,8.9,55,8.2,55,7.3c0-0.5,0.1-1,0.4-1.4
			c0.3-0.4,0.6-0.8,1.1-1c0.5-0.3,1.1-0.4,1.7-0.4c0.5,0,0.9,0.1,1.3,0.2h3v1.1L61,5.8c0.3,0.4,0.4,0.9,0.4,1.5c0,0.5-0.1,1-0.4,1.4
			c-0.3,0.4-0.6,0.8-1.1,1C59.5,10,58.9,10.2,58.2,10.2z M56.1,13.6c0,0.5,0.2,0.8,0.6,1c0.4,0.2,0.9,0.3,1.5,0.3
			c0.6,0,1.1-0.1,1.4-0.4s0.5-0.6,0.5-1c0-0.3-0.1-0.6-0.4-0.8c-0.2-0.2-0.7-0.4-1.4-0.4c-0.5,0-1-0.1-1.4-0.1
			c-0.4,0.2-0.6,0.4-0.8,0.7C56.1,13.2,56.1,13.4,56.1,13.6z M58.2,8.8c0.5,0,0.9-0.1,1.2-0.4c0.3-0.3,0.5-0.6,0.5-1.1
			c0-0.5-0.2-0.9-0.5-1.1c-0.3-0.3-0.7-0.4-1.2-0.4c-0.5,0-0.9,0.1-1.2,0.4c-0.3,0.3-0.5,0.6-0.5,1.1c0,0.5,0.2,0.9,0.5,1.1
			C57.3,8.7,57.7,8.8,58.2,8.8z"/>
		<path class="st5" d="M64.9,3.1c-0.3,0-0.6-0.1-0.8-0.3c-0.2-0.2-0.3-0.4-0.3-0.7s0.1-0.5,0.3-0.7C64.3,1.1,64.6,1,64.9,1
			c0.3,0,0.6,0.1,0.8,0.3C65.9,1.5,66,1.8,66,2.1s-0.1,0.5-0.3,0.7C65.5,3,65.2,3.1,64.9,3.1z M64.1,12.6v-8h1.7v8H64.1z"/>
		<path class="st5" d="M71.2,12.8c-1,0-1.8-0.2-2.5-0.7c-0.7-0.5-1-1.1-1.1-2h1.7c0.1,0.4,0.3,0.7,0.6,0.9c0.3,0.3,0.7,0.4,1.3,0.4
			c0.5,0,0.9-0.1,1.1-0.3c0.2-0.2,0.4-0.5,0.4-0.7c0-0.4-0.2-0.7-0.5-0.8c-0.3-0.1-0.8-0.3-1.4-0.4c-0.4-0.1-0.9-0.2-1.3-0.4
			s-0.8-0.4-1.1-0.7c-0.3-0.3-0.4-0.7-0.4-1.2c0-0.7,0.3-1.3,0.8-1.7C69.3,4.7,70,4.4,71,4.4c0.9,0,1.6,0.2,2.2,0.6
			c0.6,0.4,0.9,1,1,1.8h-1.6c-0.1-0.3-0.2-0.6-0.5-0.8c-0.3-0.2-0.6-0.3-1.1-0.3c-0.4,0-0.8,0.1-1,0.3c-0.2,0.2-0.4,0.4-0.4,0.7
			s0.2,0.5,0.5,0.7c0.3,0.2,0.8,0.3,1.3,0.4c0.5,0.1,1,0.3,1.5,0.4c0.5,0.2,0.8,0.4,1.1,0.7c0.3,0.3,0.4,0.7,0.4,1.3
			c0,0.7-0.3,1.3-0.8,1.8C73,12.6,72.2,12.8,71.2,12.8z"/>
		<path class="st5" d="M79.3,12.6c-0.8,0-1.4-0.2-1.9-0.6c-0.5-0.4-0.7-1.1-0.7-2V6.1h-1.4V4.6h1.4l0.2-2h1.5v2h2.3v1.4h-2.3V10
			c0,0.4,0.1,0.7,0.3,0.9c0.2,0.2,0.5,0.2,1,0.2h0.9v1.4H79.3z"/>
		<path class="st5" d="M83.4,3.1c-0.3,0-0.6-0.1-0.8-0.3c-0.2-0.2-0.3-0.4-0.3-0.7s0.1-0.5,0.3-0.7C82.8,1.1,83.1,1,83.4,1
			s0.6,0.1,0.8,0.3c0.2,0.2,0.3,0.4,0.3,0.7s-0.1,0.5-0.3,0.7C84,3,83.7,3.1,83.4,3.1z M82.6,12.6v-8h1.7v8H82.6z"/>
		<path class="st5" d="M90.3,12.8c-0.8,0-1.5-0.2-2.1-0.5c-0.6-0.4-1.1-0.8-1.4-1.5c-0.3-0.6-0.5-1.4-0.5-2.2c0-0.8,0.2-1.6,0.5-2.2
			c0.3-0.6,0.8-1.1,1.4-1.5c0.6-0.4,1.3-0.5,2.1-0.5c1,0,1.8,0.3,2.5,0.8c0.7,0.5,1.1,1.2,1.3,2.1h-1.8c-0.1-0.4-0.3-0.8-0.7-1
			c-0.4-0.2-0.8-0.4-1.3-0.4c-0.4,0-0.8,0.1-1.2,0.3c-0.4,0.2-0.6,0.5-0.9,0.9C88.1,7.5,88,8,88,8.6c0,0.6,0.1,1.1,0.3,1.5
			c0.2,0.4,0.5,0.7,0.9,0.9c0.4,0.2,0.7,0.3,1.2,0.3c0.5,0,0.9-0.1,1.3-0.4c0.4-0.2,0.6-0.6,0.7-1h1.8c-0.2,0.9-0.6,1.5-1.3,2.1
			C92.1,12.5,91.3,12.8,90.3,12.8z"/>
		<path class="st5" d="M99.1,12.8c-1,0-1.8-0.2-2.5-0.7c-0.7-0.5-1-1.1-1.1-2h1.7c0.1,0.4,0.3,0.7,0.6,0.9s0.7,0.4,1.3,0.4
			c0.5,0,0.9-0.1,1.1-0.3c0.2-0.2,0.4-0.5,0.4-0.7c0-0.4-0.2-0.7-0.5-0.8c-0.3-0.1-0.8-0.3-1.4-0.4c-0.4-0.1-0.9-0.2-1.3-0.4
			c-0.4-0.2-0.8-0.4-1.1-0.7c-0.3-0.3-0.4-0.7-0.4-1.2c0-0.7,0.3-1.3,0.8-1.7c0.5-0.5,1.3-0.7,2.3-0.7c0.9,0,1.6,0.2,2.2,0.6
			c0.6,0.4,0.9,1,1,1.8h-1.6c-0.1-0.3-0.2-0.6-0.5-0.8c-0.3-0.2-0.6-0.3-1.1-0.3c-0.4,0-0.8,0.1-1,0.3c-0.2,0.2-0.4,0.4-0.4,0.7
			s0.2,0.5,0.5,0.7c0.3,0.2,0.8,0.3,1.3,0.4c0.5,0.1,1,0.3,1.5,0.4c0.5,0.2,0.8,0.4,1.1,0.7c0.3,0.3,0.4,0.7,0.4,1.3
			c0,0.7-0.3,1.3-0.8,1.8S100.1,12.8,99.1,12.8z"/>
		<path class="st5" d="M108.6,12.6V6.1h-1.1V4.6h1.1V3.5c0-0.9,0.2-1.5,0.7-1.9c0.4-0.4,1-0.6,1.8-0.6h0.8v1.4h-0.6
			c-0.4,0-0.6,0.1-0.8,0.2c-0.2,0.2-0.2,0.4-0.2,0.8v1.1h1.8v1.4h-1.8v6.5H108.6z"/>
		<path class="st5" d="M117.2,12.8c-0.8,0-1.4-0.2-2-0.5c-0.6-0.3-1.1-0.8-1.4-1.5c-0.4-0.6-0.5-1.4-0.5-2.2c0-0.8,0.2-1.6,0.5-2.2
			c0.4-0.6,0.8-1.1,1.5-1.5c0.6-0.3,1.3-0.5,2-0.5c0.8,0,1.4,0.2,2.1,0.5c0.6,0.3,1.1,0.8,1.4,1.5c0.4,0.6,0.5,1.4,0.5,2.2
			c0,0.8-0.2,1.6-0.5,2.2c-0.4,0.6-0.8,1.1-1.5,1.5C118.6,12.6,117.9,12.8,117.2,12.8z M117.2,11.3c0.4,0,0.8-0.1,1.1-0.3
			c0.3-0.2,0.6-0.5,0.8-0.9c0.2-0.4,0.3-0.9,0.3-1.5c0-0.6-0.1-1.1-0.3-1.5c-0.2-0.4-0.5-0.7-0.8-0.9c-0.3-0.2-0.7-0.3-1.1-0.3
			c-0.4,0-0.8,0.1-1.1,0.3c-0.3,0.2-0.6,0.5-0.8,0.9s-0.3,0.9-0.3,1.5c0,0.6,0.1,1.1,0.3,1.5c0.2,0.4,0.5,0.7,0.8,0.9
			C116.4,11.2,116.8,11.3,117.2,11.3z"/>
		<path class="st5" d="M123.1,12.6v-8h1.5l0.1,1.5c0.3-0.5,0.7-0.9,1.2-1.2c0.5-0.3,1.1-0.5,1.8-0.5v1.8h-0.5
			c-0.5,0-0.9,0.1-1.3,0.2c-0.4,0.2-0.7,0.4-0.9,0.8c-0.2,0.4-0.3,0.9-0.3,1.5v3.8H123.1z"/>
		<path class="st5" d="M136.6,12.6c-0.8,0-1.4-0.2-1.9-0.6S134,11,134,10V6.1h-1.4V4.6h1.4l0.2-2h1.5v2h2.3v1.4h-2.3V10
			c0,0.4,0.1,0.7,0.3,0.9c0.2,0.2,0.5,0.2,1,0.2h0.9v1.4H136.6z"/>
		<path class="st5" d="M139.7,12.6V1h1.7v4.9c0.3-0.5,0.6-0.8,1.1-1.1c0.5-0.3,1-0.4,1.6-0.4c1,0,1.7,0.3,2.3,0.9
			c0.5,0.6,0.8,1.5,0.8,2.7v4.6h-1.7V8.2c0-1.5-0.6-2.3-1.8-2.3c-0.6,0-1.2,0.2-1.6,0.7c-0.4,0.4-0.6,1.1-0.6,1.9v4.1H139.7z"/>
		<path class="st5" d="M152.9,12.8c-0.8,0-1.5-0.2-2.1-0.5c-0.6-0.3-1.1-0.8-1.4-1.5c-0.3-0.6-0.5-1.3-0.5-2.2
			c0-0.8,0.2-1.6,0.5-2.2c0.3-0.6,0.8-1.1,1.4-1.5c0.6-0.4,1.3-0.5,2.1-0.5c0.8,0,1.5,0.2,2,0.5c0.6,0.3,1,0.8,1.4,1.4
			c0.3,0.6,0.5,1.2,0.5,1.9c0,0.1,0,0.2,0,0.3c0,0.1,0,0.3,0,0.4h-6.2c0.1,0.8,0.3,1.4,0.8,1.8c0.5,0.4,1,0.6,1.6,0.6
			c0.5,0,0.9-0.1,1.2-0.3c0.3-0.2,0.6-0.5,0.7-0.9h1.7c-0.2,0.7-0.6,1.4-1.3,1.9C154.7,12.6,153.9,12.8,152.9,12.8z M152.9,5.8
			c-0.6,0-1.1,0.2-1.5,0.5c-0.4,0.3-0.7,0.8-0.8,1.5h4.5c0-0.6-0.3-1.1-0.7-1.5C154.1,6,153.6,5.8,152.9,5.8z"/>
		<path class="st5" d="M166.9,12.8c-0.8,0-1.5-0.2-2.2-0.5c-0.6-0.3-1.2-0.8-1.5-1.5c-0.4-0.7-0.6-1.5-0.6-2.5v-7h1.7v7
			c0,1,0.2,1.7,0.7,2.2c0.5,0.5,1.1,0.7,1.9,0.7c0.8,0,1.4-0.2,1.9-0.7c0.5-0.5,0.7-1.2,0.7-2.2v-7h1.7v7c0,1-0.2,1.8-0.6,2.5
			c-0.4,0.7-0.9,1.1-1.6,1.5C168.5,12.6,167.7,12.8,166.9,12.8z"/>
		<path class="st5" d="M173.4,12.6v-8h1.5l0.1,1.5c0.3-0.5,0.7-0.9,1.2-1.2c0.5-0.3,1.1-0.5,1.8-0.5v1.8h-0.5
			c-0.5,0-0.9,0.1-1.3,0.2c-0.4,0.2-0.7,0.4-0.9,0.8c-0.2,0.4-0.3,0.9-0.3,1.5v3.8H173.4z"/>
		<path class="st5" d="M184,12.8c-0.6,0-1.2-0.1-1.6-0.4c-0.5-0.2-0.9-0.6-1.1-1l-0.2,1.2h-1.5V1h1.7v4.8c0.3-0.4,0.6-0.7,1.1-1
			c0.4-0.3,1-0.4,1.7-0.4c0.8,0,1.5,0.2,2,0.5c0.6,0.4,1.1,0.9,1.4,1.5s0.5,1.4,0.5,2.2s-0.2,1.5-0.5,2.1c-0.3,0.6-0.8,1.1-1.4,1.5
			C185.5,12.6,184.8,12.8,184,12.8z M183.7,11.3c0.7,0,1.3-0.2,1.8-0.7c0.5-0.5,0.7-1.1,0.7-2c0-0.5-0.1-1-0.3-1.4
			c-0.2-0.4-0.5-0.7-0.9-1c-0.4-0.2-0.8-0.3-1.3-0.3c-0.7,0-1.3,0.3-1.8,0.8c-0.5,0.5-0.7,1.2-0.7,1.9c0,0.8,0.2,1.5,0.7,2
			C182.4,11.1,183,11.3,183.7,11.3z"/>
		<path class="st5" d="M192.5,12.8c-0.7,0-1.2-0.1-1.7-0.3c-0.4-0.2-0.8-0.5-1-0.9c-0.2-0.4-0.3-0.8-0.3-1.2c0-0.8,0.3-1.4,0.9-1.8
			c0.6-0.4,1.5-0.7,2.6-0.7h2.1V7.7c0-0.6-0.2-1.1-0.5-1.4c-0.3-0.3-0.8-0.5-1.3-0.5c-0.5,0-0.9,0.1-1.2,0.3c-0.3,0.2-0.6,0.6-0.6,1
			h-1.7c0.1-0.6,0.2-1.1,0.6-1.5c0.3-0.4,0.8-0.7,1.3-0.9c0.5-0.2,1.1-0.3,1.7-0.3c1.1,0,2,0.3,2.6,0.9c0.6,0.6,0.9,1.4,0.9,2.4v4.9
			h-1.5l-0.1-1.4c-0.2,0.4-0.6,0.8-1,1.1C193.8,12.7,193.2,12.8,192.5,12.8z M192.8,11.4c0.5,0,0.8-0.1,1.2-0.3
			c0.3-0.2,0.6-0.5,0.7-0.9c0.2-0.4,0.3-0.8,0.3-1.2h-1.9c-0.7,0-1.2,0.1-1.4,0.4c-0.3,0.2-0.4,0.5-0.4,0.9c0,0.4,0.1,0.7,0.4,0.9
			C192,11.3,192.4,11.4,192.8,11.4z"/>
		<path class="st5" d="M198.8,12.6v-8h1.5l0.1,1.4c0.2-0.5,0.6-0.9,1.1-1.2c0.5-0.3,1-0.4,1.6-0.4c1,0,1.7,0.3,2.3,0.9
			c0.6,0.6,0.8,1.5,0.8,2.7v4.6h-1.7V8.2c0-1.5-0.6-2.3-1.9-2.3c-0.6,0-1.2,0.2-1.6,0.7s-0.6,1.1-0.6,1.9v4.1H198.8z"/>
		<path class="st5" d="M212.4,12.6V1.4h7.2v1.4h-5.5v3.5h5v1.4h-5v3.6h5.5v1.4H212.4z"/>
		<path class="st5" d="M225.3,12.8c-0.8,0-1.5-0.2-2.1-0.5c-0.6-0.4-1.1-0.8-1.4-1.5c-0.3-0.6-0.5-1.4-0.5-2.2
			c0-0.8,0.2-1.6,0.5-2.2c0.3-0.6,0.8-1.1,1.4-1.5c0.6-0.4,1.3-0.5,2.1-0.5c1,0,1.8,0.3,2.5,0.8c0.7,0.5,1.1,1.2,1.3,2.1h-1.8
			c-0.1-0.4-0.3-0.8-0.7-1c-0.4-0.2-0.8-0.4-1.3-0.4c-0.4,0-0.8,0.1-1.2,0.3c-0.4,0.2-0.6,0.5-0.9,0.9c-0.2,0.4-0.3,0.9-0.3,1.5
			c0,0.6,0.1,1.1,0.3,1.5c0.2,0.4,0.5,0.7,0.9,0.9c0.4,0.2,0.7,0.3,1.2,0.3c0.5,0,0.9-0.1,1.3-0.4c0.4-0.2,0.6-0.6,0.7-1h1.8
			c-0.2,0.9-0.6,1.5-1.3,2.1C227.1,12.5,226.3,12.8,225.3,12.8z"/>
		<path class="st5" d="M234.6,12.8c-0.8,0-1.4-0.2-2-0.5c-0.6-0.3-1.1-0.8-1.4-1.5c-0.4-0.6-0.5-1.4-0.5-2.2c0-0.8,0.2-1.6,0.5-2.2
			c0.4-0.6,0.8-1.1,1.5-1.5c0.6-0.3,1.3-0.5,2-0.5c0.8,0,1.4,0.2,2.1,0.5c0.6,0.3,1.1,0.8,1.4,1.5c0.4,0.6,0.5,1.4,0.5,2.2
			c0,0.8-0.2,1.6-0.5,2.2c-0.4,0.6-0.8,1.1-1.5,1.5C236.1,12.6,235.4,12.8,234.6,12.8z M234.6,11.3c0.4,0,0.8-0.1,1.1-0.3
			c0.3-0.2,0.6-0.5,0.8-0.9c0.2-0.4,0.3-0.9,0.3-1.5c0-0.6-0.1-1.1-0.3-1.5c-0.2-0.4-0.5-0.7-0.8-0.9c-0.3-0.2-0.7-0.3-1.1-0.3
			c-0.4,0-0.8,0.1-1.1,0.3c-0.3,0.2-0.6,0.5-0.8,0.9s-0.3,0.9-0.3,1.5c0,0.6,0.1,1.1,0.3,1.5c0.2,0.4,0.5,0.7,0.8,0.9
			C233.9,11.2,234.2,11.3,234.6,11.3z"/>
		<path class="st5" d="M240.5,12.6v-8h1.5l0.1,1.4c0.2-0.5,0.6-0.9,1.1-1.2c0.5-0.3,1-0.4,1.6-0.4c1,0,1.7,0.3,2.3,0.9
			c0.6,0.6,0.8,1.5,0.8,2.7v4.6h-1.7V8.2c0-1.5-0.6-2.3-1.9-2.3c-0.6,0-1.2,0.2-1.6,0.7c-0.4,0.4-0.6,1.1-0.6,1.9v4.1H240.5z"/>
		<path class="st5" d="M253.8,12.8c-0.8,0-1.4-0.2-2-0.5c-0.6-0.3-1.1-0.8-1.4-1.5c-0.4-0.6-0.5-1.4-0.5-2.2c0-0.8,0.2-1.6,0.5-2.2
			c0.4-0.6,0.8-1.1,1.5-1.5c0.6-0.3,1.3-0.5,2-0.5c0.8,0,1.4,0.2,2.1,0.5c0.6,0.3,1.1,0.8,1.4,1.5c0.4,0.6,0.5,1.4,0.5,2.2
			c0,0.8-0.2,1.6-0.5,2.2c-0.4,0.6-0.8,1.1-1.5,1.5C255.2,12.6,254.5,12.8,253.8,12.8z M253.8,11.3c0.4,0,0.8-0.1,1.1-0.3
			c0.3-0.2,0.6-0.5,0.8-0.9c0.2-0.4,0.3-0.9,0.3-1.5c0-0.6-0.1-1.1-0.3-1.5c-0.2-0.4-0.5-0.7-0.8-0.9c-0.3-0.2-0.7-0.3-1.1-0.3
			c-0.4,0-0.8,0.1-1.1,0.3c-0.3,0.2-0.6,0.5-0.8,0.9s-0.3,0.9-0.3,1.5c0,0.6,0.1,1.1,0.3,1.5c0.2,0.4,0.5,0.7,0.8,0.9
			C253,11.2,253.3,11.3,253.8,11.3z"/>
		<path class="st5" d="M259.7,12.6v-8h1.5l0.1,1.1c0.3-0.4,0.6-0.7,1-1c0.4-0.2,0.9-0.4,1.5-0.4c1.3,0,2.1,0.5,2.6,1.5
			c0.3-0.5,0.7-0.8,1.2-1.1c0.5-0.3,1-0.4,1.6-0.4c1,0,1.8,0.3,2.3,0.9c0.6,0.6,0.9,1.5,0.9,2.7v4.6h-1.7V8.2c0-1.5-0.6-2.3-1.8-2.3
			c-0.6,0-1.1,0.2-1.5,0.7s-0.6,1.1-0.6,1.9v4.1h-1.7V8.2c0-1.5-0.6-2.3-1.8-2.3c-0.6,0-1.1,0.2-1.5,0.7c-0.4,0.4-0.6,1.1-0.6,1.9
			v4.1H259.7z"/>
		<path class="st5" d="M275.1,16.2L277,12h-0.5l-3.2-7.3h1.8l2.4,5.9l2.6-5.9h1.8l-5.1,11.5H275.1z"/>
	</g>
</g>
</svg>
